# xmcd
#
# Track frame offsets:
#	150
#	17827
#	35250
#	51075
#	66405
#	80870
#	97945
#	111270
#	127597
#	147617
#	165407
#	177650
#	195157
#	213372
#	225637
#	236595
#	249405
#	262035
#
# Disc length: 3702
#
# Revision: 6
# Processed by: cddbd v1.5.1PL0 Copyright (c) Steve Scherf et al.
# Submitted via: CDex 1.50
# Normalized: r5:DSETVAR1
#
DISCID=f70e7412
DTITLE=Various Artist - Nashville Country
DYEAR=1997
DGENRE=Country
TTITLE0=Gretchen Peters - On A Bus To St. Cloud
TTITLE1=Wynonna - I Saw The Light
TTITLE2=Hal Ketchum - I Know Where He Lives
TTITLE3=Tim McGraw - I Like It I Love It
TTITLE4=Sawyer Brown - Some Girls Do
TTITLE5=Junior Brown - My Wife Thinks You're Dead
TTITLE6=The Desert Rose Band - She Don't Love Nobody
TTITLE7=Boy Howdy - She'd Give Anything
TTITLE8=Delbert McClinton - Everytime I Roll The Dice
TTITLE9=Hank Williams Jnr. - All My Rowdy Friends (Have Settled Down)
TTITLE10=Jo Dee Messina - Do You Wanna Make Something Of It
TTITLE11=The Judds - Love Can Build A Bridge
TTITLE12=Philip Claypool - Circus Leaving Town
TTITLE13=Bob Woodruff - Out Of The Blue
TTITLE14=Jeff Carson - Yeah Buddy
TTITLE15=Al Anderson - Under The Hood
TTITLE16=Perfect Stranger - Cut Me Off
TTITLE17=David Kersh - Goodnight Sweetheart
EXTD=YEAR: 1997
EXTT0=
EXTT1=
EXTT2=
EXTT3=
EXTT4=
EXTT5=
EXTT6=
EXTT7=
EXTT8=
EXTT9=
EXTT10=The Judds - Love Can Build A Bridge
EXTT11=
EXTT12=
EXTT13=
EXTT14=
EXTT15=
EXTT16=
EXTT17=
PLAYORDER=
